<svg xmlns="http://www.w3.org/2000/svg" version="1.1" xmlns:xlink="http://www.w3.org/1999/xlink" xmlns:svgjs="http://svgjs.dev/svgjs" width="1500" height="1500" viewBox="0 0 1500 1500"><g transform="matrix(1,0,0,1,0,0)"><svg viewBox="0 0 280 280" data-background-color="#c0ff00" preserveAspectRatio="xMidYMid meet" height="1500" width="1500" xmlns="http://www.w3.org/2000/svg" xmlns:xlink="http://www.w3.org/1999/xlink"><g id="tight-bounds" transform="matrix(1,0,0,1,0,0)"><svg viewBox="0 0 280 280" height="280" width="280"><g><svg viewBox="0 0 280 280" height="280" width="280"><g><svg viewBox="0 0 280 280" height="280" width="280"><g id="textblocktransform"><svg viewBox="0 0 280 280" height="280" width="280" id="textblock"><g><svg viewBox="0 0 280 280" height="280" width="280"><g transform="matrix(1,0,0,1,90.72389857754652,74.00336708925556)"><svg viewBox="0 0 98.55220284490694 131.99326582148888" height="131.99326582148888" width="98.55220284490694"><g id="icon-0"><svg xmlns="http://www.w3.org/2000/svg" xmlns:xlink="http://www.w3.org/1999/xlink" version="1.1" x="0" y="0" viewBox="24.602 15.304 51.251999999999995 68.643" enable-background="new 0 0 100 100" xml:space="preserve" height="131.99326582148888" width="98.55220284490694" class="icon-jxe-0" data-fill-palette-color="accent" id="jxe-0"><path d="M50.228 15.304C36.076 15.304 24.602 23.933 24.602 34.579V80.259C24.602 82.295 26.243 83.947 28.267 83.947 30.288 83.947 31.929 82.295 31.929 80.259V75.128C31.929 73.091 33.572 71.44 35.594 71.44 37.478 71.44 39.01 72.877 39.215 74.718V80.258C39.215 82.294 40.856 83.946 42.88 83.946L42.902 83.944 42.921 83.946C44.943 83.946 46.586 82.294 46.586 80.258V75.128C46.586 73.098 48.215 71.453 50.228 71.441 52.241 71.453 53.87 73.097 53.87 75.128V80.258C53.87 82.294 55.513 83.946 57.535 83.946A3.674 3.674 0 0 0 61.126 80.994 3.6 3.6 0 0 0 61.234 80.258H61.241V74.718C61.446 72.876 62.978 71.44 64.862 71.44 66.887 71.44 68.524 73.091 68.524 75.128V80.258H68.533C68.618 82.22 70.221 83.786 72.192 83.786 74.16 83.786 75.761 82.22 75.845 80.258H75.854V34.579C75.854 23.933 64.381 15.304 50.228 15.304M59.493 38.375C62.255 38.375 64.493 38.613 64.493 41.375S62.255 46.375 59.493 46.375 54.493 44.137 54.493 41.375 56.731 38.375 59.493 38.375M40.897 38.375C43.659 38.375 45.897 38.613 45.897 41.375S43.659 46.375 40.897 46.375 35.897 44.137 35.897 41.375 38.136 38.375 40.897 38.375" fill="#183d24" data-fill-palette-color="accent"></path><circle cx="59.494" cy="39.583" r="1.9" fill="#183d24" data-fill-palette-color="accent"></circle><circle cx="40.896" cy="39.583" r="1.9" fill="#183d24" data-fill-palette-color="accent"></circle></svg></g></svg></g><g id="text-0"><path d="M30.643 96.001c-0.905 2.589-2.285 4.624-4.141 6.105-1.855 1.48-4.018 2.357-6.487 2.63-2.469 0.273-5.062-0.065-7.78-1.015v0c-2.794-0.977-5.061-2.373-6.8-4.189-1.739-1.816-2.856-3.868-3.35-6.156-0.495-2.288-0.321-4.636 0.521-7.047v0c0.771-2.205 1.854-4.07 3.251-5.595v0l3.134 1.527c-0.706 0.703-1.307 1.435-1.803 2.196-0.496 0.762-0.919 1.642-1.269 2.642v0c-0.663 1.897-0.756 3.685-0.278 5.362 0.478 1.678 1.417 3.149 2.816 4.415 1.399 1.266 3.111 2.253 5.136 2.961v0c3.23 1.129 6.103 1.285 8.619 0.467 2.516-0.818 4.284-2.688 5.306-5.611v0c0.394-1.128 0.56-2.178 0.497-3.15v0l-7.115-2.487-1.196 3.423-3.192-1.116 2.42-6.922 12.267 4.289c0.243 1.034 0.318 2.197 0.227 3.488-0.092 1.291-0.353 2.552-0.783 3.783z" fill="#183d24" data-fill-palette-color="primary"></path><path d="M45.841 68.227c-0.931 1.203-2.125 1.858-3.583 1.967-1.458 0.108-2.852-0.353-4.183-1.384v0c-1.976-1.529-2.759-3.458-2.349-5.784 0.41-2.327 1.383-4.527 2.92-6.601v0c-1.375-1.064-2.488-1.6-3.341-1.607-0.853-0.008-1.653 0.472-2.401 1.438v0c-0.964 1.246-1.462 2.887-1.493 4.924v0l-2.626-1.466c-0.048-2.201 0.618-4.193 1.997-5.975v0c1.313-1.697 2.774-2.575 4.384-2.635 1.609-0.06 3.498 0.75 5.667 2.428v0l4.607 3.566c1.224 0.948 2.155 1.531 2.793 1.75 0.638 0.219 1.181 0.038 1.629-0.542v0l0.275-0.354 2.013 2.124-0.474 0.613c-0.765 0.988-1.512 1.577-2.243 1.766-0.731 0.19-1.621 0.119-2.67-0.211v0c0.326 1.043 0.416 2.091 0.27 3.145-0.146 1.054-0.544 2-1.192 2.838zM44.227 65.587c0.399-0.515 0.616-1.206 0.651-2.072 0.035-0.866-0.12-1.742-0.466-2.627v0l-3.769-2.917c-1.194 1.72-1.85 3.222-1.967 4.504-0.117 1.283 0.393 2.365 1.532 3.247v0c1.632 1.263 2.972 1.219 4.019-0.135z" fill="#183d24" data-fill-palette-color="primary"></path><path d="M72.354 18.227c3.694-2.39 7.164-1.076 10.409 3.941v0l6.196 9.578-2.976 1.925-5.952-9.202c-1.18-1.824-2.277-2.983-3.291-3.475-1.014-0.492-2.102-0.362-3.265 0.39v0c-1.117 0.723-1.707 1.686-1.769 2.891-0.062 1.204 0.409 2.582 1.411 4.133v0l6.196 9.577-2.976 1.925-5.952-9.201c-1.136-1.756-2.222-2.897-3.258-3.424-1.036-0.527-2.067-0.458-3.093 0.206v0c-0.753 0.487-1.315 1.142-1.689 1.965-0.373 0.824-0.54 1.74-0.501 2.75v0l7.788 12.041-2.976 1.925-10.841-16.761 2.462-1.593 1.612 1.966c-0.008-1.062 0.255-2.081 0.788-3.057 0.533-0.976 1.29-1.781 2.271-2.415v0c1.026-0.664 2.068-0.99 3.126-0.98 1.058 0.011 2.099 0.332 3.123 0.965v0c-0.142-1.17 0.052-2.282 0.583-3.337 0.531-1.055 1.389-1.966 2.574-2.733z" fill="#183d24" data-fill-palette-color="primary"></path><path d="M116.776 23.452c-1.961 0.44-3.74 0.358-5.336-0.244-1.596-0.603-2.921-1.607-3.973-3.013-1.053-1.406-1.793-3.063-2.22-4.972v0c-0.41-1.829-0.461-3.578-0.153-5.247 0.308-1.669 0.978-3.086 2.011-4.25 1.033-1.164 2.398-1.936 4.094-2.316v0c2.173-0.487 4.105-0.155 5.797 0.997 1.691 1.152 2.825 3.013 3.402 5.584v0c0.101 0.451 0.188 1.085 0.259 1.904v0l-11.846 2.655c0.596 2.288 1.565 3.908 2.905 4.859 1.341 0.952 2.872 1.235 4.595 0.849v0c0.822-0.184 1.667-0.478 2.537-0.881 0.87-0.404 1.608-0.868 2.214-1.394v0l1.013 3.029c-1.279 1.122-3.045 1.935-5.299 2.44zM108.427 12.089l8.308-1.862c-0.297-1.325-0.864-2.332-1.7-3.021-0.836-0.689-1.864-0.897-3.083-0.625v0c-1.193 0.267-2.097 0.86-2.712 1.777-0.616 0.917-0.886 2.161-0.813 3.731z" fill="#183d24" data-fill-palette-color="primary"></path><path d="M143.775 20.637l1.034-19.935 2.889 0.15 0.274 3.36c0.963-1.255 1.859-2.161 2.691-2.716 0.831-0.555 1.694-0.81 2.589-0.763v0c0.353 0.018 0.662 0.075 0.929 0.17v0l-0.575 4.009c-0.348-0.1-0.753-0.161-1.214-0.185v0c-0.895-0.046-1.747 0.134-2.557 0.54-0.81 0.407-1.406 0.899-1.79 1.478v0l-0.73 14.076z" fill="#183d24" data-fill-palette-color="primary"></path><path d="M197.059 35.371l15.336-24.042 3.126 1.994-6.332 9.926 11.059 7.054 6.332-9.925 3.125 1.993-15.336 24.042-3.125-1.993 7.055-11.06-11.06-7.054-7.054 11.059z" fill="#183d24" data-fill-palette-color="primary"></path><path d="M251.924 57.769l2.196 2.782-15.671 12.366-1.868-2.367 1.768-1.706c-1.04 0.129-2.043-0.014-3.01-0.427-0.966-0.414-1.795-1.058-2.484-1.932v0c-1.295-1.642-1.71-3.296-1.243-4.962 0.467-1.666 1.724-3.306 3.771-4.921v0l9.627-7.596 2.195 2.782-9.274 7.319c-1.407 1.11-2.293 2.147-2.658 3.109-0.365 0.963-0.16 1.934 0.613 2.915v0c0.538 0.682 1.218 1.149 2.039 1.401 0.821 0.252 1.724 0.3 2.71 0.145v0z" fill="#183d24" data-fill-palette-color="primary"></path><path d="M270.852 93.561c0.552 1.504 0.585 2.975 0.099 4.411-0.486 1.436-1.367 2.721-2.643 3.855-1.277 1.134-2.782 2.018-4.516 2.655v0c-1.81 0.664-3.574 0.964-5.29 0.898-1.716-0.065-3.205-0.495-4.465-1.291-1.261-0.796-2.158-1.921-2.691-3.374v0c-0.374-1.02-0.531-2.04-0.472-3.059 0.06-1.02 0.339-1.954 0.838-2.803v0l-1.892 0.52-1.108-3.021 28.685-10.521 1.221 3.327-11.742 4.307c1.94 0.793 3.265 2.158 3.976 4.096zM254.08 99.061c0.496 1.351 1.552 2.201 3.169 2.548 1.617 0.347 3.382 0.17 5.294-0.531v0c1.963-0.72 3.433-1.722 4.409-3.006 0.976-1.284 1.211-2.614 0.706-3.99v0c-0.505-1.377-1.494-2.28-2.968-2.709-1.473-0.429-3.307-0.241-5.499 0.564v0c-2.269 0.832-3.815 1.884-4.636 3.154-0.821 1.27-0.98 2.594-0.475 3.97z" fill="#183d24" data-fill-palette-color="primary"></path><path d="M0 139.655c0-6.446 5.226-11.672 11.672-11.672 6.446 0 11.672 5.226 11.671 11.672 0 6.446-5.226 11.672-11.671 11.672-6.446 0-11.672-5.226-11.672-11.672z" fill="#183d24" data-fill-palette-color="primary"></path><path d="M256.657 139.655c0-6.446 5.226-11.672 11.671-11.672 6.446 0 11.672 5.226 11.672 11.672 0 6.446-5.226 11.672-11.672 11.672-6.446 0-11.672-5.226-11.671-11.672z" fill="#183d24" data-fill-palette-color="primary"></path></g><g id="text-1"><path d="M10.459 191.533c-0.986-2.77-1.203-5.395-0.653-7.876 0.558-2.483 1.773-4.667 3.646-6.551 1.88-1.887 4.271-3.347 7.176-4.382v0c2.987-1.063 5.818-1.422 8.492-1.076 2.668 0.348 4.978 1.309 6.929 2.884 1.952 1.575 3.385 3.649 4.301 6.221v0c0.84 2.36 1.189 4.647 1.047 6.859v0l-3.639 0.831c0.12-1.059 0.13-2.075 0.028-3.048-0.099-0.967-0.339-1.984-0.718-3.052v0c-0.722-2.028-1.844-3.581-3.368-4.661-1.529-1.077-3.302-1.675-5.319-1.793-2.017-0.118-4.109 0.209-6.278 0.98v0c-3.454 1.23-5.955 3.031-7.502 5.406-1.548 2.374-1.765 5.125-0.652 8.253v0c0.428 1.203 0.996 2.19 1.703 2.962v0l7.609-2.709-1.305-3.665 3.406-1.212 2.637 7.407-13.116 4.669c-0.899-0.703-1.742-1.625-2.53-2.764-0.794-1.137-1.425-2.365-1.894-3.683z" fill="#183d24" data-fill-palette-color="secondary"></path><path d="M29.213 224.712c-1.004-1.283-1.369-2.697-1.093-4.24 0.27-1.539 1.116-2.865 2.539-3.977v0c2.107-1.648 4.316-1.954 6.627-0.918 2.306 1.041 4.334 2.631 6.085 4.769v0c1.465-1.146 2.314-2.16 2.548-3.041 0.229-0.886-0.06-1.845-0.868-2.877v0c-1.038-1.326-2.61-2.273-4.717-2.839v0l2.209-2.35c2.301 0.528 4.196 1.743 5.685 3.647v0c1.418 1.813 1.947 3.563 1.587 5.25-0.365 1.682-1.705 3.429-4.021 5.241v0l-4.917 3.847c-1.305 1.021-2.154 1.836-2.547 2.446-0.398 0.604-0.354 1.217 0.131 1.837v0l0.295 0.377-2.733 1.531-0.515-0.658c-0.824-1.053-1.238-1.984-1.241-2.792-0.003-0.808 0.306-1.714 0.927-2.716v0c-1.174 0.065-2.288-0.12-3.343-0.553-1.056-0.424-1.935-1.085-2.638-1.984zM32.38 223.735c0.431 0.551 1.093 0.956 1.984 1.214 0.891 0.268 1.843 0.339 2.855 0.211v0l4.018-3.144c-1.472-1.694-2.857-2.769-4.154-3.228-1.308-0.46-2.569-0.214-3.783 0.735v0c-1.743 1.364-2.05 2.768-0.92 4.212z" fill="#183d24" data-fill-palette-color="secondary"></path><path d="M85.232 243.593c3.977 2.539 4.243 6.507 0.797 11.904v0l-6.577 10.301-3.201-2.044 6.319-9.898c1.253-1.963 1.894-3.547 1.923-4.753 0.023-1.21-0.589-2.213-1.837-3.01v0c-1.202-0.767-2.404-0.915-3.608-0.442-1.202 0.481-2.334 1.555-3.397 3.22v0l-6.577 10.301-3.202-2.044 6.319-9.898c1.206-1.889 1.834-3.453 1.885-4.693 0.054-1.246-0.471-2.222-1.575-2.927v0c-0.807-0.515-1.694-0.772-2.662-0.77-0.968 0.002-1.937 0.246-2.907 0.73v0l-8.27 12.954-3.202-2.045 11.509-18.026 2.653 1.693-1.201 2.448c1.034-0.484 2.143-0.682 3.328-0.594 1.188 0.082 2.312 0.461 3.37 1.137v0c1.105 0.705 1.886 1.575 2.346 2.609 0.459 1.034 0.609 2.194 0.45 3.478v0c1.074-0.66 2.245-0.967 3.514-0.923 1.259 0.047 2.527 0.477 3.803 1.292z" fill="#183d24" data-fill-palette-color="secondary"></path><path d="M113.312 277.072c-2.104-0.455-3.796-1.334-5.077-2.639-1.281-1.305-2.118-2.878-2.512-4.721-0.387-1.841-0.36-3.784 0.082-5.828v0c0.424-1.964 1.161-3.688 2.21-5.169 1.051-1.489 2.339-2.565 3.866-3.229 1.527-0.67 3.203-0.808 5.028-0.414v0c2.329 0.503 4.058 1.696 5.187 3.579 1.122 1.882 1.385 4.2 0.79 6.954v0c-0.105 0.484-0.306 1.143-0.604 1.975v0l-12.713-2.747c-0.449 2.494-0.233 4.503 0.647 6.027 0.871 1.529 2.233 2.493 4.084 2.893v0c0.883 0.191 1.835 0.285 2.857 0.284 1.028 0 1.957-0.119 2.786-0.357v0l-0.38 3.398c-1.751 0.518-3.835 0.516-6.251-0.006zM110.302 262.262l8.92 1.927c0.307-1.42 0.209-2.654-0.295-3.701-0.503-1.046-1.409-1.711-2.716-1.993v0c-1.281-0.277-2.425-0.107-3.434 0.509-1.015 0.614-1.84 1.7-2.475 3.258z" fill="#183d24" data-fill-palette-color="secondary"></path><path d="M145.189 279.298l-1.187-21.355 3.101-0.173 0.677 3.543c0.879-1.443 1.73-2.51 2.555-3.202 0.819-0.685 1.706-1.054 2.662-1.107v0c0.38-0.021 0.718 0.004 1.014 0.076v0l-0.156 4.334c-0.378-0.067-0.814-0.087-1.309-0.06v0c-0.963 0.054-1.851 0.344-2.665 0.872-0.814 0.528-1.393 1.121-1.737 1.78v0l0.838 15.081z" fill="#183d24" data-fill-palette-color="secondary"></path><path d="M206.92 262.036l-16.268-25.863 3.362-2.115 6.719 10.681 11.897-7.483-6.719-10.681 3.363-2.115 16.267 25.863-3.362 2.115-7.483-11.897-11.897 7.483 7.483 11.897z" fill="#183d24" data-fill-palette-color="secondary"></path><path d="M235.514 208.966l2.371-2.968 16.711 13.348-2.015 2.523-2.21-1.427c0.388 1.048 0.485 2.129 0.29 3.243-0.2 1.109-0.67 2.128-1.411 3.057v0c-1.398 1.751-3.025 2.585-4.88 2.502-1.855-0.082-3.872-0.994-6.052-2.736v0l-10.266-8.199 2.371-2.968 9.891 7.9c1.501 1.199 2.799 1.87 3.893 2.014 1.089 0.149 2.051-0.3 2.885-1.345v0c0.581-0.727 0.904-1.55 0.97-2.471 0.062-0.915-0.107-1.867-0.508-2.856v0z" fill="#183d24" data-fill-palette-color="secondary"></path><path d="M250.415 178.901c0.602-1.609 1.602-2.826 2.999-3.651 1.397-0.826 3.011-1.254 4.842-1.286 1.832-0.032 3.673 0.299 5.523 0.991v0c1.933 0.724 3.575 1.712 4.926 2.965 1.351 1.253 2.258 2.644 2.722 4.173 0.473 1.526 0.419 3.064-0.162 4.615v0c-0.41 1.094-0.994 2.035-1.753 2.824-0.763 0.78-1.644 1.342-2.643 1.686v0l1.904 0.898-1.211 3.233-30.655-11.479 1.332-3.557 12.543 4.696c-1.021-1.999-1.143-4.035-0.367-6.108zM267.885 186.15c0.543-1.45 0.277-2.88-0.797-4.29-1.074-1.41-2.632-2.497-4.673-3.261v0c-2.098-0.786-3.991-0.998-5.678-0.636-1.693 0.359-2.816 1.276-3.368 2.751v0c-0.55 1.469-0.376 2.893 0.52 4.273 0.899 1.374 2.522 2.5 4.869 3.379v0c2.423 0.907 4.411 1.133 5.966 0.678 1.557-0.461 2.611-1.426 3.161-2.894z" fill="#183d24" data-fill-palette-color="secondary"></path></g></svg></g></svg></g></svg></g><g></g></svg></g><defs></defs></svg><rect width="280" height="280" fill="none" stroke="none" visibility="hidden"></rect></g></svg></g></svg>